<svg xmlns="http://www.w3.org/2000/svg" viewBox="0 0 1204.8 293.57"><defs><style>.cls-1,.cls-2{fill:#fff;stroke:#fff;}.cls-1{stroke-linecap:round;stroke-linejoin:round;stroke-width:4px;}.cls-2{stroke-width:5px;}</style></defs><g id="Calque_2" data-name="Calque 2"><g id="Calque_1-2" data-name="Calque 1"><g id="Logo_Blanc" data-name="Logo Blanc"><g id="Logo_Focale_net" data-name="Logo Focale net"><path class="cls-1" d="M237.06,32.64V92.85L146.21,2A149.34,149.34,0,0,1,237.06,32.64Z"/><path class="cls-1" d="M93.22,11.78l52.14,30.1L21.26,75.14A149.28,149.28,0,0,1,93.22,11.78Z"/><path class="cls-1" d="M3.23,125.92l52.14-30.1L22.12,219.92A149.3,149.3,0,0,1,3.23,125.92Z"/><path class="cls-1" d="M57.08,260.93V200.72l90.85,90.85A149.34,149.34,0,0,1,57.08,260.93Z"/><path class="cls-1" d="M200.93,281.79l-52.14-30.1,124.1-33.26A149.28,149.28,0,0,1,200.93,281.79Z"/><path class="cls-1" d="M290.92,167.65l-52.14,30.1L272,73.65A149.3,149.3,0,0,1,290.92,167.65Z"/><path class="cls-1" d="M147.07,146.78l18.07-55.42a58.29,58.29,0,1,0,40.23,55.42Z"/></g><path class="cls-2" d="M354.11,203.18V72.68h14.54v130.5Zm7.27-116.33V72.68h74.75V86.85Zm0,58.16V130.66h66V145Z"/><path class="cls-2" d="M494.66,205a50.56,50.56,0,0,1-25.81-6.52,46.59,46.59,0,0,1-17.71-18.09,53.08,53.08,0,0,1-6.44-26.28,51.66,51.66,0,0,1,6.44-25.91,47,47,0,0,1,17.71-17.9,53.94,53.94,0,0,1,51.45,0A47.2,47.2,0,0,1,538,128.24a51.76,51.76,0,0,1,6.43,25.91A53.18,53.18,0,0,1,538,180.43a46.8,46.8,0,0,1-17.71,18.09A50.27,50.27,0,0,1,494.66,205Zm0-13.23a33.9,33.9,0,0,0,30.76-18.37,40.61,40.61,0,0,0,4.48-19.29,40.07,40.07,0,0,0-4.48-19.2,33,33,0,0,0-12.49-13.15,35.1,35.1,0,0,0-18.27-4.75,35.63,35.63,0,0,0-18.36,4.75A33.37,33.37,0,0,0,463.63,135a38.2,38.2,0,0,0-4.39,19.11,38.56,38.56,0,0,0,4.39,19.29,34.45,34.45,0,0,0,31,18.37Z"/><path class="cls-2" d="M601.11,205a46.12,46.12,0,0,1-24.61-6.62,47.35,47.35,0,0,1-17.06-18.08,53.5,53.5,0,0,1-6.24-26,53.49,53.49,0,0,1,6.24-26,46.07,46.07,0,0,1,41.85-24.52A51.79,51.79,0,0,1,624,108.75a41.85,41.85,0,0,1,16.4,13.71l-8.2,10.06a39.58,39.58,0,0,0-8.48-8.2,41.46,41.46,0,0,0-10.63-5.5,34.62,34.62,0,0,0-11.28-2,32.51,32.51,0,0,0-17.71,4.94,35.57,35.57,0,0,0-12.39,13.33,39.49,39.49,0,0,0-4.57,19.2,40,40,0,0,0,4.57,19.3A34.56,34.56,0,0,0,584.14,187a32.64,32.64,0,0,0,17.53,4.85,34.89,34.89,0,0,0,11-1.78,39.82,39.82,0,0,0,10.25-5.12,44,44,0,0,0,9-8.39l8.2,10.07a45,45,0,0,1-17,13.42A50.93,50.93,0,0,1,601.11,205Z"/><path class="cls-2" d="M691.52,205a41.31,41.31,0,0,1-22.93-6.62,46.68,46.68,0,0,1-16.22-18.08,55.45,55.45,0,0,1-6-26q0-14.72,6.15-26.09a47.29,47.29,0,0,1,16.5-17.9,42.57,42.57,0,0,1,23.2-6.53,43.45,43.45,0,0,1,14.17,2.24,39.65,39.65,0,0,1,11.65,6.25,38.11,38.11,0,0,1,8.58,9.32,33.7,33.7,0,0,1,4.75,11.46l-4.1-2.05.56-25.16h14v97.31H727.68V179.31l3.73-2.42a29.69,29.69,0,0,1-5,10.72,41.67,41.67,0,0,1-9,9A43.67,43.67,0,0,1,691.52,205Zm3.17-13.42A32.17,32.17,0,0,0,712,186.86a33,33,0,0,0,12-13.23,41.45,41.45,0,0,0,4.38-19.3,40.92,40.92,0,0,0-4.38-19.2,34,34,0,0,0-12-13.23,33.58,33.58,0,0,0-34.77,0,34.12,34.12,0,0,0-11.93,13.23,40.92,40.92,0,0,0-4.38,19.2,41.71,41.71,0,0,0,4.28,19.11,33.06,33.06,0,0,0,11.94,13.33A32,32,0,0,0,694.69,191.62Z"/><path class="cls-2" d="M764.78,203.18V65.23h14v138Z"/><path class="cls-2" d="M842.7,205a51.76,51.76,0,0,1-25.82-6.34A45,45,0,0,1,799.27,181q-6.35-11.37-6.34-26.1a57.15,57.15,0,0,1,3.54-20.6,49.37,49.37,0,0,1,10-16.12,44.92,44.92,0,0,1,15.38-10.72,48.83,48.83,0,0,1,19.39-3.82,44.46,44.46,0,0,1,18,3.54,41.88,41.88,0,0,1,14,9.79A40.9,40.9,0,0,1,882,131.78a51.59,51.59,0,0,1,2.61,18.83l-.19,6.52H803.37l-2-11.74h72.52l-3.36,3.17v-4.48a29.4,29.4,0,0,0-3.92-13,27.85,27.85,0,0,0-10-10.15,29,29,0,0,0-15.38-3.92,37.07,37.07,0,0,0-18.08,4.19,28,28,0,0,0-11.74,12.4q-4.11,8.21-4.11,20.32,0,11.56,4.48,20a31.65,31.65,0,0,0,12.77,13.14q8.29,4.67,20,4.67a41.93,41.93,0,0,0,13.7-2.34q6.79-2.33,15-9.22l7.27,10.06a44.54,44.54,0,0,1-10.26,7.55,60.29,60.29,0,0,1-13,5.22A54.13,54.13,0,0,1,842.7,205Z"/><path class="cls-2" d="M947.47,203.18V105.87h13.79l.56,20.32-2.23.93a26.26,26.26,0,0,1,7.27-11.56,42.83,42.83,0,0,1,12.95-8.48,38.81,38.81,0,0,1,15.57-3.27q10.82,0,18.08,4.29t11,13.24q3.72,8.94,3.73,22.74v59.1H1014V144.83q0-9.69-2.52-15.94a17.88,17.88,0,0,0-7.73-9.23,24.39,24.39,0,0,0-12.87-2.8A31.54,31.54,0,0,0,979.16,119a28.71,28.71,0,0,0-9.32,5.87,27.94,27.94,0,0,0-6.15,8.58,24.61,24.61,0,0,0-2.24,10.43v59.29h-14Z"/><path class="cls-2" d="M1093.06,205a51.76,51.76,0,0,1-25.82-6.34A45.12,45.12,0,0,1,1049.62,181q-6.33-11.37-6.33-26.1a57.15,57.15,0,0,1,3.54-20.6,49.2,49.2,0,0,1,10-16.12,44.92,44.92,0,0,1,15.38-10.72,48.83,48.83,0,0,1,19.39-3.82,44.53,44.53,0,0,1,18,3.54,42,42,0,0,1,14,9.79,40.88,40.88,0,0,1,8.85,14.82,51.17,51.17,0,0,1,2.61,18.83l-.18,6.52h-81.09l-2-11.74h72.51l-3.35,3.17v-4.48a29.4,29.4,0,0,0-3.92-13A27.85,27.85,0,0,0,1107,121a29,29,0,0,0-15.38-3.92,37.07,37.07,0,0,0-18.08,4.19,28,28,0,0,0-11.75,12.4q-4.1,8.21-4.1,20.32,0,11.56,4.47,20a31.71,31.71,0,0,0,12.77,13.14q8.3,4.67,20,4.67a41.94,41.94,0,0,0,13.71-2.34q6.8-2.33,15-9.22l7.27,10.06a44.48,44.48,0,0,1-10.25,7.55,60.49,60.49,0,0,1-13.05,5.22A54.13,54.13,0,0,1,1093.06,205Z"/><path class="cls-2" d="M1141.72,119.29V105.87h60.58v13.42Zm22,83.89V80.33h14V203.18Z"/></g></g></g></svg>