<svg xmlns="http://www.w3.org/2000/svg" viewBox="0 0 1212.59 308.01"><defs><style>.cls-1{fill:none;stroke-linecap:round;stroke-linejoin:round;stroke-width:8px;}.cls-1,.cls-2{stroke:#1e1e24;}.cls-2{fill:#1e1e24;stroke-width:5px;}</style></defs><g id="Calque_2" data-name="Calque 2"><g id="Calque_1-2" data-name="Calque 1"><g id="Logo_Focale_net" data-name="Logo Focale net"><path class="cls-1" d="M244.86,34.64V94.85L154,4A149.34,149.34,0,0,1,244.86,34.64Z"/><polyline class="cls-1" points="244.86 94.85 244.86 94.86 244.87 94.86"/><line class="cls-1" x1="244.87" y1="94.86" x2="244.86" y2="94.86"/><line class="cls-1" x1="244.86" y1="94.86" x2="244.86" y2="94.85"/><path class="cls-1" d="M133.84,5.36l42.58,42.57H47.94A149.33,149.33,0,0,1,133.84,5.36Z"/><polyline class="cls-1" points="176.42 47.93 176.43 47.94 176.43 47.93"/><line class="cls-1" x1="176.43" y1="47.93" x2="176.43" y2="47.94"/><line class="cls-1" x1="176.43" y1="47.94" x2="176.42" y2="47.93"/><path class="cls-1" d="M34.64,63.15H94.85L4,154A149.34,149.34,0,0,1,34.64,63.15Z"/><polyline class="cls-1" points="94.85 63.15 94.86 63.15 94.86 63.14"/><line class="cls-1" x1="94.86" y1="63.14" x2="94.86" y2="63.15"/><line class="cls-1" x1="94.86" y1="63.15" x2="94.85" y2="63.15"/><path class="cls-1" d="M5.36,174.17l42.57-42.58V260.07A149.33,149.33,0,0,1,5.36,174.17Z"/><polyline class="cls-1" points="47.93 131.59 47.94 131.59 47.93 131.58"/><line class="cls-1" x1="47.93" y1="131.58" x2="47.94" y2="131.58"/><line class="cls-1" x1="47.94" y1="131.58" x2="47.93" y2="131.59"/><path class="cls-1" d="M63.15,273.37V213.16L154,304A149.34,149.34,0,0,1,63.15,273.37Z"/><polyline class="cls-1" points="63.15 213.16 63.15 213.15 63.14 213.15"/><line class="cls-1" x1="63.14" y1="213.15" x2="63.15" y2="213.15"/><line class="cls-1" x1="63.15" y1="213.15" x2="63.15" y2="213.16"/><path class="cls-1" d="M174.17,302.65l-42.58-42.57H260.07A149.33,149.33,0,0,1,174.17,302.65Z"/><polyline class="cls-1" points="131.59 260.08 131.59 260.07 131.58 260.08"/><line class="cls-1" x1="131.58" y1="260.08" x2="131.58" y2="260.07"/><line class="cls-1" x1="131.58" y1="260.07" x2="131.59" y2="260.08"/><path class="cls-1" d="M273.37,244.86H213.16L304,154A149.34,149.34,0,0,1,273.37,244.86Z"/><polyline class="cls-1" points="213.16 244.86 213.15 244.86 213.15 244.87"/><line class="cls-1" x1="213.15" y1="244.87" x2="213.15" y2="244.86"/><line class="cls-1" x1="213.15" y1="244.86" x2="213.16" y2="244.86"/><path class="cls-1" d="M302.65,133.84l-42.57,42.58V47.94A149.33,149.33,0,0,1,302.65,133.84Z"/><polyline class="cls-1" points="260.08 176.42 260.07 176.43 260.08 176.43"/><line class="cls-1" x1="260.08" y1="176.43" x2="260.07" y2="176.43"/><line class="cls-1" x1="260.07" y1="176.43" x2="260.08" y2="176.42"/><circle class="cls-1" cx="154.87" cy="154.56" r="58.29"/></g><path class="cls-2" d="M361.9,210.4V79.9h14.54V210.4Zm7.27-116.33V79.9h74.75V94.07Zm0,58.16V137.88h66v14.35Z"/><path class="cls-2" d="M502.46,212.26a50.6,50.6,0,0,1-25.82-6.52,46.73,46.73,0,0,1-17.71-18.09,53.07,53.07,0,0,1-6.43-26.28,51.66,51.66,0,0,1,6.43-25.91,47.13,47.13,0,0,1,17.71-17.9,53.94,53.94,0,0,1,51.45,0,47.13,47.13,0,0,1,17.71,17.9,51.66,51.66,0,0,1,6.43,25.91,53.07,53.07,0,0,1-6.43,26.28,46.73,46.73,0,0,1-17.71,18.09A50.23,50.23,0,0,1,502.46,212.26Zm0-13.24a33.87,33.87,0,0,0,30.76-18.36,40.72,40.72,0,0,0,4.47-19.29,40.19,40.19,0,0,0-4.47-19.2A33.1,33.1,0,0,0,520.73,129a35.25,35.25,0,0,0-18.27-4.75A35.74,35.74,0,0,0,484.09,129a33.37,33.37,0,0,0-12.67,13.24A38.09,38.09,0,0,0,467,161.37a38.46,38.46,0,0,0,4.38,19.29,34.42,34.42,0,0,0,31,18.36Z"/><path class="cls-2" d="M608.9,212.26a46.12,46.12,0,0,1-24.61-6.62,47.32,47.32,0,0,1-17-18.08,53.39,53.39,0,0,1-6.25-26,53.38,53.38,0,0,1,6.25-26A46,46,0,0,1,609.09,111a51.64,51.64,0,0,1,22.74,5,41.85,41.85,0,0,1,16.41,13.7L640,139.74a39.58,39.58,0,0,0-8.48-8.2,41.24,41.24,0,0,0-10.62-5.5,34.66,34.66,0,0,0-11.28-2A32.51,32.51,0,0,0,591.94,129a35.6,35.6,0,0,0-12.4,13.33,39.49,39.49,0,0,0-4.57,19.2,40,40,0,0,0,4.57,19.3,34.59,34.59,0,0,0,12.4,13.33A32.62,32.62,0,0,0,609.46,199a34.88,34.88,0,0,0,11-1.77,39.82,39.82,0,0,0,10.25-5.12,43.75,43.75,0,0,0,8.95-8.39l8.2,10.07a44.87,44.87,0,0,1-17,13.42A50.9,50.9,0,0,1,608.9,212.26Z"/><path class="cls-2" d="M699.31,212.26a41.33,41.33,0,0,1-22.93-6.62,46.76,46.76,0,0,1-16.22-18.08,55.58,55.58,0,0,1-6-26q0-14.72,6.15-26.09a47.29,47.29,0,0,1,16.5-17.9A42.6,42.6,0,0,1,700.06,111a43.53,43.53,0,0,1,14.17,2.24,39.65,39.65,0,0,1,11.65,6.25,38.27,38.27,0,0,1,8.57,9.32,33.72,33.72,0,0,1,4.76,11.46l-4.1-2.05.55-25.16h14V210.4H735.48V186.53l3.73-2.42a29.55,29.55,0,0,1-5,10.72,41.45,41.45,0,0,1-9,9,43.67,43.67,0,0,1-25.82,8.39Zm3.17-13.42a32.17,32.17,0,0,0,17.34-4.76,33,33,0,0,0,12-13.23,41.47,41.47,0,0,0,4.38-19.3,40.92,40.92,0,0,0-4.38-19.2,34,34,0,0,0-12-13.23,33.58,33.58,0,0,0-34.77,0,34.19,34.19,0,0,0-11.93,13.23,40.92,40.92,0,0,0-4.38,19.2A41.71,41.71,0,0,0,673,180.66,33,33,0,0,0,685,194,32,32,0,0,0,702.48,198.84Z"/><path class="cls-2" d="M772.57,210.4V72.45h14v138Z"/><path class="cls-2" d="M850.5,212.26a51.73,51.73,0,0,1-25.82-6.34,45.06,45.06,0,0,1-17.62-17.71q-6.34-11.37-6.34-26.1a57.15,57.15,0,0,1,3.54-20.6,49.22,49.22,0,0,1,10-16.12,44.83,44.83,0,0,1,15.38-10.72A48.74,48.74,0,0,1,849,110.85a44.46,44.46,0,0,1,18,3.54,42.16,42.16,0,0,1,14,9.79A41,41,0,0,1,889.83,139a51.17,51.17,0,0,1,2.61,18.83l-.19,6.52H811.16l-2-11.74h72.52l-3.36,3.16V151.3a29.3,29.3,0,0,0-3.91-13,27.83,27.83,0,0,0-10-10.16A29,29,0,0,0,849,124.27a37,37,0,0,0-18.08,4.2,28,28,0,0,0-11.74,12.39q-4.11,8.2-4.1,20.32,0,11.56,4.47,20a31.65,31.65,0,0,0,12.77,13.14q8.29,4.66,20,4.66a41.87,41.87,0,0,0,13.7-2.33q6.81-2.33,15-9.22l7.27,10.06a44.7,44.7,0,0,1-10.25,7.55A60.49,60.49,0,0,1,865,210.3,54.18,54.18,0,0,1,850.5,212.26Z"/><path class="cls-2" d="M955.26,210.4V113.09h13.8l.56,20.32-2.24.93a26.26,26.26,0,0,1,7.27-11.56,42.76,42.76,0,0,1,13-8.48,38.76,38.76,0,0,1,15.56-3.27q10.82,0,18.08,4.29a26.6,26.6,0,0,1,11,13.24q3.74,8.94,3.73,22.74v59.1h-14.17V152.05q0-9.69-2.51-15.94a17.94,17.94,0,0,0-7.74-9.23,24.37,24.37,0,0,0-12.86-2.8A31.6,31.6,0,0,0,987,126.23a28.81,28.81,0,0,0-9.32,5.87,27.94,27.94,0,0,0-6.15,8.58,24.61,24.61,0,0,0-2.24,10.43V210.4h-14Z"/><path class="cls-2" d="M1100.85,212.26a51.76,51.76,0,0,1-25.82-6.34,45,45,0,0,1-17.61-17.71q-6.35-11.37-6.34-26.1a57.15,57.15,0,0,1,3.54-20.6,49.22,49.22,0,0,1,10-16.12A44.73,44.73,0,0,1,1080,114.67a48.74,48.74,0,0,1,19.38-3.82,44.46,44.46,0,0,1,18,3.54,42,42,0,0,1,14,9.79,40.9,40.9,0,0,1,8.86,14.82,51.38,51.38,0,0,1,2.61,18.83l-.19,6.52h-81.09l-2-11.74H1132l-3.36,3.16V151.3a29.3,29.3,0,0,0-3.91-13,27.91,27.91,0,0,0-10-10.16,29,29,0,0,0-15.38-3.92,37,37,0,0,0-18.08,4.2,27.91,27.91,0,0,0-11.74,12.39q-4.11,8.2-4.11,20.32,0,11.56,4.48,20a31.65,31.65,0,0,0,12.77,13.14q8.29,4.66,20,4.66a41.91,41.91,0,0,0,13.7-2.33q6.8-2.33,15-9.22l7.27,10.06a44.54,44.54,0,0,1-10.26,7.55,60.29,60.29,0,0,1-13,5.22A54.13,54.13,0,0,1,1100.85,212.26Z"/><path class="cls-2" d="M1149.51,126.51V113.09h60.58v13.42Zm22,83.89V87.55h14V210.4Z"/></g></g></svg>